<svg width="325" height="320" viewBox="0 0 325 320" fill="none" xmlns="http://www.w3.org/2000/svg">
<rect x="0.710938" y="23.7791" width="189.102" height="189.102" transform="rotate(-5.9 0.710938 23.7791)" fill="#FDDC35"/>
<path d="M96.7487 116.29C97.9076 116.17 98.7607 115.13 98.5259 113.989C98.1107 111.971 97.4016 110.02 96.418 108.201C95.0993 105.762 93.313 103.607 91.1613 101.858C89.0096 100.11 86.5346 98.802 83.8775 98.0099C81.2204 97.2178 78.4333 96.9568 75.6754 97.2418C72.9174 97.5268 70.2426 98.3522 67.8036 99.671C65.3647 100.99 63.2093 102.776 61.4607 104.928C59.7121 107.079 58.4043 109.554 57.6122 112.211C57.0214 114.193 56.7261 116.247 56.7324 118.308C56.7359 119.473 57.7837 120.317 58.9427 120.197V120.197C60.1016 120.077 60.9302 119.038 60.9557 117.873C60.9888 116.366 61.2234 114.867 61.6558 113.417C62.2896 111.291 63.336 109.31 64.7352 107.589C66.1343 105.867 67.8589 104.438 69.8105 103.383C71.762 102.327 73.9023 101.667 76.1091 101.439C78.3159 101.211 80.546 101.42 82.6721 102.053C84.7981 102.687 86.7786 103.734 88.5003 105.133C90.222 106.532 91.6512 108.257 92.7064 110.208C93.4263 111.54 93.9625 112.959 94.303 114.427C94.5662 115.562 95.5897 116.41 96.7487 116.29V116.29Z" fill="black"/>
<circle cx="193.586" cy="95.2099" r="21.1134" transform="rotate(-5.9 193.586 95.2099)" fill="black"/>
<path d="M74.5764 41.9841C81.719 53.5508 87.6035 52.9427 92.2299 40.1598C96.8562 27.3769 102.741 26.7688 109.883 38.3355C117.026 49.9021 122.91 49.294 127.537 36.5111C132.163 23.7282 138.048 23.1201 145.19 34.6868C152.333 46.2535 158.217 45.6454 162.844 32.8625C167.47 20.0796 173.355 19.4715 180.497 31.0382C187.64 42.6049 193.524 41.9968 198.151 29.2139C202.777 16.431 208.661 15.8229 215.804 27.3896C222.947 38.9563 228.831 38.3482 233.458 25.5653" stroke="black" stroke-width="3.67189"/>
<path d="M118.299 143.599C118.584 146.357 119.41 149.031 120.728 151.47C122.047 153.909 123.833 156.065 125.985 157.813C128.137 159.562 130.612 160.87 133.269 161.662C135.926 162.454 138.713 162.715 141.471 162.43C144.229 162.145 146.904 161.319 149.343 160.001C151.782 158.682 153.937 156.896 155.686 154.744C157.434 152.592 158.742 150.117 159.534 147.46C160.326 144.803 160.587 142.016 160.302 139.258L139.301 141.428L118.299 143.599Z" fill="black"/>
<rect x="173.178" y="142.272" width="143.931" height="143.931" rx="71.9656" transform="rotate(14.1028 173.178 142.272)" fill="#8EB2FA"/>
<circle cx="260.014" cy="223.885" r="16.07" transform="rotate(14.1028 260.014 223.885)" fill="black"/>
<line x1="186.942" y1="253.793" x2="296.719" y2="281.373" stroke="black" stroke-width="5.58956" stroke-linecap="round"/>
<circle cx="178.56" cy="178.205" r="15.3713" transform="rotate(14.1028 178.56 178.205)" stroke="black" stroke-width="2.79478"/>
<circle cx="178.561" cy="178.203" r="5.58956" transform="rotate(14.1028 178.561 178.203)" fill="black"/>
<mask id="mask0_960_20045" style="mask-type:alpha" maskUnits="userSpaceOnUse" x="0" y="0" width="251" height="212">
<rect x="0.710938" y="23.7791" width="189.102" height="189.102" transform="rotate(-5.9 0.710938 23.7791)" fill="#FDDC35"/>
<path d="M96.7487 116.29C97.9076 116.17 98.7607 115.13 98.5259 113.989C98.1107 111.971 97.4016 110.02 96.418 108.201C95.0993 105.762 93.313 103.607 91.1613 101.858C89.0096 100.11 86.5346 98.802 83.8775 98.0099C81.2204 97.2178 78.4333 96.9568 75.6754 97.2418C72.9174 97.5268 70.2426 98.3522 67.8036 99.671C65.3647 100.99 63.2093 102.776 61.4607 104.928C59.7121 107.079 58.4043 109.554 57.6122 112.211C57.0214 114.193 56.7261 116.247 56.7324 118.308C56.7359 119.473 57.7837 120.317 58.9427 120.197V120.197C60.1016 120.077 60.9302 119.038 60.9557 117.873C60.9888 116.366 61.2234 114.867 61.6558 113.417C62.2896 111.291 63.336 109.31 64.7352 107.589C66.1343 105.867 67.8589 104.438 69.8105 103.383C71.762 102.327 73.9023 101.667 76.1091 101.439C78.3159 101.211 80.546 101.42 82.6721 102.053C84.7981 102.687 86.7786 103.734 88.5003 105.133C90.222 106.532 91.6512 108.257 92.7064 110.208C93.4263 111.54 93.9625 112.959 94.303 114.427C94.5662 115.562 95.5897 116.41 96.7487 116.29V116.29Z" fill="black"/>
<circle cx="193.586" cy="95.2099" r="21.1134" transform="rotate(-5.9 193.586 95.2099)" fill="black"/>
<path d="M74.5764 41.9841C81.719 53.5508 87.6035 52.9427 92.2299 40.1598C96.8562 27.3769 102.741 26.7688 109.883 38.3355C117.026 49.9021 122.91 49.294 127.537 36.5111C132.163 23.7282 138.048 23.1201 145.19 34.6868C152.333 46.2535 158.217 45.6454 162.844 32.8625C167.47 20.0796 173.355 19.4715 180.497 31.0382C187.64 42.6049 193.524 41.9968 198.151 29.2139C202.777 16.431 208.661 15.8229 215.804 27.3896C222.947 38.9563 228.831 38.3482 233.458 25.5653" stroke="black" stroke-width="3.67189"/>
<path d="M118.299 143.599C118.584 146.357 119.41 149.031 120.728 151.47C122.047 153.909 123.833 156.065 125.985 157.813C128.137 159.562 130.612 160.87 133.269 161.662C135.926 162.454 138.713 162.715 141.471 162.43C144.229 162.145 146.904 161.319 149.343 160.001C151.782 158.682 153.937 156.896 155.686 154.744C157.434 152.592 158.742 150.117 159.534 147.46C160.326 144.803 160.587 142.016 160.302 139.258L139.301 141.428L118.299 143.599Z" fill="black"/>
</mask>
<g mask="url(#mask0_960_20045)">
<rect x="173.178" y="142.272" width="143.931" height="143.931" rx="71.9656" transform="rotate(14.1028 173.178 142.272)" fill="#B0CBFF"/>
<circle cx="260.014" cy="223.885" r="16.07" transform="rotate(14.1028 260.014 223.885)" fill="black"/>
<circle cx="178.56" cy="178.205" r="15.3713" transform="rotate(14.1028 178.56 178.205)" stroke="black" stroke-width="2.79478"/>
<circle cx="178.561" cy="178.203" r="5.58956" transform="rotate(14.1028 178.561 178.203)" fill="black"/>
</g>
</svg>
